<?xml version="1.0" standalone="no"?>
<!DOCTYPE svg PUBLIC "-//W3C//DTD SVG 20010904//EN"
 "http://www.w3.org/TR/2001/REC-SVG-20010904/DTD/svg10.dtd">
<svg version="1.0" xmlns="http://www.w3.org/2000/svg"
 width="3840.000000pt" height="2160.000000pt" viewBox="0 0 3840.000000 2160.000000"
 preserveAspectRatio="xMidYMid meet">

<g transform="translate(0.000000,2160.000000) scale(0.100000,-0.100000)"
fill="#000000" stroke="none">
<path d="M10040 21371 c-516 -7 -538 -8 -608 -29 -352 -108 -607 -374 -697
-730 -28 -111 -28 -203 -1 -557 271 -3515 974 -12374 1361 -17150 150 -1852
151 -1860 180 -1945 100 -294 353 -529 672 -627 84 -25 102 -27 373 -33 157
-3 3847 -6 8200 -6 l7915 1 85 31 c180 66 304 140 423 253 127 121 239 309
267 448 12 59 30 269 119 1338 329 3944 1207 15119 1396 17755 15 201 24 390
20 420 -8 71 -67 249 -107 319 -125 223 -321 387 -566 472 -66 23 -156 25
-1582 34 -1247 8 -16842 13 -17450 6z m17815 -266 c545 -3 1017 -7 1050 -9
114 -6 281 -101 395 -223 78 -83 123 -156 157 -254 33 -95 38 -181 24 -380
-167 -2310 -1479 -18826 -1517 -19094 -29 -205 -182 -404 -394 -510 -92 -46
-121 -53 -250 -59 -474 -23 -14801 -29 -16010 -6 l-285 5 -77 33 c-227 98
-406 304 -437 504 -16 96 -63 666 -371 4493 -632 7862 -1136 14221 -1166
14730 -7 126 4 206 43 305 83 209 262 374 483 445 51 17 132 18 1065 22 556 2
1026 5 1045 7 53 6 15111 -3 16245 -9z"/>
<path d="M9843 20560 c-162 -17 -278 -128 -309 -295 -4 -22 -7 -44 -6 -48 6
-24 11 -84 17 -177 3 -58 8 -127 10 -155 3 -27 9 -113 15 -190 6 -77 12 -167
15 -200 6 -70 23 -289 30 -390 3 -38 8 -95 10 -125 2 -30 7 -89 10 -130 3 -41
8 -100 10 -130 2 -30 7 -89 10 -130 3 -41 8 -95 10 -120 2 -25 7 -83 10 -130
3 -47 8 -105 10 -130 2 -25 7 -83 10 -130 3 -47 8 -105 10 -130 2 -25 7 -79
10 -120 3 -41 8 -100 10 -130 2 -30 7 -89 10 -130 3 -41 8 -95 10 -120 2 -25
7 -83 10 -130 3 -47 8 -105 10 -130 2 -25 7 -79 10 -120 3 -41 8 -100 10 -130
2 -30 7 -89 10 -130 6 -74 11 -144 20 -250 3 -30 7 -89 10 -130 5 -73 11 -140
20 -250 3 -30 7 -89 10 -130 3 -41 8 -100 10 -130 2 -30 7 -89 10 -130 3 -41
8 -95 10 -120 2 -25 7 -83 10 -130 3 -47 8 -105 10 -130 3 -25 9 -108 15 -185
6 -77 12 -165 15 -195 2 -30 7 -89 10 -130 3 -41 8 -95 10 -120 2 -25 7 -81
10 -125 5 -74 8 -109 20 -255 3 -30 7 -89 10 -130 3 -41 8 -100 10 -130 6 -72
24 -295 31 -390 2 -41 7 -95 9 -120 2 -25 7 -79 10 -120 3 -41 8 -100 10 -130
2 -30 7 -89 10 -130 3 -41 8 -95 10 -120 2 -25 7 -83 10 -130 3 -47 8 -105 10
-130 2 -25 7 -79 10 -120 3 -41 8 -100 10 -130 5 -54 20 -248 30 -385 3 -38 8
-90 10 -115 2 -25 7 -83 10 -130 3 -47 8 -105 10 -130 2 -25 7 -79 10 -120 3
-41 8 -100 10 -130 2 -30 7 -89 10 -130 3 -41 8 -95 10 -120 2 -25 7 -83 10
-130 3 -47 8 -101 10 -120 2 -19 7 -78 10 -130 3 -52 8 -111 10 -130 2 -19 7
-73 10 -120 3 -47 8 -105 10 -130 2 -25 7 -83 10 -130 3 -47 8 -101 10 -120 2
-19 7 -78 10 -130 3 -52 8 -111 10 -130 2 -19 7 -73 10 -120 3 -47 8 -105 10
-130 3 -25 9 -108 15 -185 6 -77 13 -167 15 -200 3 -33 7 -85 10 -115 3 -30 7
-89 10 -130 5 -73 11 -140 20 -250 3 -30 7 -89 10 -130 3 -41 8 -101 10 -132
3 -32 7 -84 10 -115 2 -32 7 -92 10 -133 3 -41 8 -95 10 -120 2 -25 7 -83 10
-130 3 -47 8 -101 10 -120 2 -19 7 -78 10 -130 3 -52 8 -106 10 -120 2 -14 7
-72 10 -130 4 -58 8 -112 10 -120 2 -8 6 -64 10 -125 3 -60 8 -117 10 -125 2
-8 6 -64 10 -125 3 -60 8 -117 10 -125 2 -8 7 -64 10 -125 4 -60 8 -117 10
-125 1 -8 6 -62 10 -120 8 -115 11 -140 20 -149 3 -3 789 -7 1746 -9 l1739 -4
0 7011 0 7011 -2092 -1 c-1151 -1 -2125 -5 -2165 -9z"/>
<path d="M24370 13561 l0 -7011 1740 0 c1384 0 1742 3 1745 12 2 7 9 67 15
133 6 66 13 140 15 165 2 25 7 81 10 125 4 44 8 96 10 115 2 19 7 73 10 120 3
47 8 105 10 130 2 25 7 79 10 120 3 41 7 100 10 130 7 78 14 164 20 245 52
662 76 961 80 1010 3 33 10 119 15 190 12 156 19 242 25 315 10 112 16 192 40
505 14 176 27 347 30 380 3 33 10 119 15 190 6 72 12 157 15 190 3 33 10 119
15 190 6 72 13 157 15 190 3 33 12 148 20 255 8 107 17 222 20 255 3 33 12
148 20 255 8 107 17 222 20 255 3 33 12 148 20 255 8 107 17 220 20 250 2 30
9 118 15 195 6 77 12 160 15 185 2 25 7 79 9 120 7 95 25 318 31 390 7 82 13
163 40 520 14 179 27 350 30 380 2 30 7 89 10 130 3 41 8 100 10 130 2 30 7
89 10 130 3 41 8 100 10 130 2 30 7 87 10 125 13 179 25 335 30 385 2 30 7 91
10 135 3 44 8 100 10 125 2 25 7 86 10 135 4 50 8 106 10 125 2 19 7 80 10
135 4 55 8 111 10 125 2 14 7 75 10 135 4 61 9 117 10 125 2 8 6 69 10 135 3
66 8 127 10 135 2 8 7 65 10 125 3 61 8 121 10 135 2 14 7 70 10 125 3 55 8
116 10 135 3 19 7 76 10 125 3 50 8 110 10 135 3 25 7 81 10 125 3 44 8 105
10 135 10 115 16 193 35 455 11 149 22 299 25 335 3 36 7 92 10 125 3 33 7 89
10 125 3 36 10 130 15 210 6 80 13 168 15 195 3 28 9 118 15 200 6 83 12 173
15 200 5 53 7 79 30 415 8 118 18 245 21 282 5 62 3 72 -27 128 -39 73 -102
133 -177 168 l-57 27 -2147 3 -2148 3 0 -7010z"/>
<path d="M18935 20404 c-535 -46 -1285 -259 -1747 -496 -108 -55 -144 -90
-153 -146 -11 -70 -27 -107 -81 -189 -97 -144 -238 -260 -391 -321 -102 -41
-172 -58 -312 -78 -64 -9 -141 -21 -171 -27 -52 -11 -55 -13 -53 -42 6 -73
221 -319 336 -383 31 -18 57 -36 57 -42 0 -26 -104 -43 -340 -55 -206 -10
-308 -40 -372 -108 -35 -37 -98 -162 -98 -192 1 -29 30 -89 85 -173 91 -141
145 -283 145 -380 0 -20 -13 -65 -29 -99 -31 -64 -70 -108 -208 -231 -63 -56
-89 -87 -114 -137 -32 -65 -32 -65 -26 -187 7 -155 33 -281 183 -873 64 -253
118 -479 121 -502 5 -40 3 -42 -24 -48 -116 -26 -184 -113 -215 -275 -6 -31
-8 -107 -5 -175 10 -200 52 -398 174 -815 36 -124 89 -307 119 -408 29 -101
69 -258 89 -350 66 -308 103 -430 167 -554 81 -157 175 -225 324 -234 43 -3
89 -7 101 -10 29 -5 39 -43 53 -189 20 -223 76 -456 156 -650 73 -177 85 -214
105 -330 70 -397 276 -777 607 -1117 174 -179 296 -281 664 -559 175 -132 320
-244 323 -249 8 -13 -48 -18 -350 -29 -282 -11 -384 -25 -415 -57 -28 -28 -39
-124 -46 -389 -7 -256 4 -395 33 -428 57 -64 233 -75 823 -52 456 18 467 18
473 1 8 -20 29 36 -220 -589 -240 -604 -356 -871 -545 -1257 -72 -146 -134
-278 -138 -293 -12 -39 14 -62 87 -76 92 -18 179 -49 305 -108 90 -42 126 -54
155 -51 36 3 40 6 80 83 127 241 413 949 527 1303 56 176 61 186 70 140 8 -46
4 -1030 -6 -1378 -5 -151 -6 -289 -3 -307 12 -69 48 -76 211 -42 54 11 159 24
232 29 149 9 165 16 182 79 47 179 37 838 -20 1366 -36 324 -110 750 -165 937
-41 142 -44 165 -30 185 12 16 36 18 267 19 139 1 330 -4 423 -11 352 -27 402
-29 435 -15 17 7 35 21 41 31 19 36 30 249 27 512 -3 302 -3 302 -89 345 -81
40 -184 53 -426 53 -138 -1 -223 3 -223 9 0 5 53 44 118 86 465 303 1052 835
1236 1121 124 193 280 562 369 878 90 315 125 515 134 765 6 179 17 226 55
235 13 3 63 9 112 15 168 18 240 76 331 265 77 160 160 423 309 975 187 694
232 936 224 1188 -6 189 -30 233 -190 341 -38 25 -48 38 -48 59 0 15 36 144
81 287 147 476 179 607 179 738 l0 60 -76 79 c-105 110 -118 143 -153 384 -52
351 -120 623 -227 901 -281 733 -767 1327 -1416 1727 -366 225 -831 398 -1263
470 -150 25 -793 52 -940 40z m520 -324 c578 -54 1133 -260 1680 -625 465
-311 729 -598 935 -1020 154 -314 268 -728 299 -1090 23 -263 11 -767 -24
-977 -17 -102 -31 -135 -58 -144 -37 -12 -33 -22 -187 479 -107 350 -214 614
-332 819 -92 161 -121 187 -141 122 -5 -16 -11 -166 -14 -334 l-5 -305 46 -65
c84 -119 159 -244 192 -320 89 -204 179 -645 145 -708 -15 -28 -30 -28 -230
-2 -253 32 -394 38 -817 34 -597 -5 -863 -24 -1009 -71 -86 -27 -175 -77 -324
-182 -80 -56 -159 -105 -175 -109 -19 -6 -67 -4 -126 5 -77 12 -111 12 -180 3
-215 -30 -209 -31 -350 80 -234 185 -345 227 -665 250 -77 5 -437 10 -799 10
l-659 0 6 93 c3 50 16 123 27 161 29 92 91 155 214 216 72 37 93 52 108 82 11
20 41 140 68 267 89 422 146 610 254 836 128 268 287 459 505 607 139 95 263
134 470 148 275 19 548 -34 810 -156 52 -24 106 -44 120 -44 38 0 88 37 204
147 94 91 85 113 -116 301 -243 228 -484 378 -752 468 -172 57 -280 75 -486
81 -327 10 -528 -28 -931 -173 -99 -35 -183 -62 -188 -59 -30 19 66 130 203
234 192 146 450 289 666 372 130 49 194 96 170 125 -22 26 -58 35 -172 43
-139 10 -155 21 -103 78 48 54 130 96 288 147 267 88 635 153 1008 179 108 8
324 6 425 -3z m-1655 -1430 c66 -15 100 -31 100 -46 0 -8 -66 -46 -152 -88
-84 -41 -187 -96 -228 -123 -209 -137 -363 -315 -529 -608 -82 -144 -112 -182
-230 -287 -153 -135 -196 -212 -281 -503 -75 -258 -115 -498 -144 -867 -9
-103 -21 -202 -29 -220 -27 -64 -139 -137 -176 -114 -16 10 -47 116 -135 466
-179 710 -174 789 70 1151 53 79 103 161 111 183 19 54 18 170 -2 248 -9 35
-41 120 -71 190 -30 70 -54 133 -54 141 0 29 33 40 192 63 338 49 594 123 888
259 192 88 338 133 520 159 50 7 106 5 150 -4z m-1035 -2905 c31 -30 32 -56 3
-90 -27 -31 -64 -35 -158 -16 -73 14 -111 30 -117 48 -7 20 34 52 74 58 21 3
49 10 63 14 52 18 109 13 135 -14z m5060 11 c78 -16 119 -36 123 -60 5 -24
-23 -46 -57 -46 -14 0 -55 -9 -90 -20 -72 -23 -92 -20 -121 17 -42 54 -12 123
53 123 17 -1 59 -7 92 -14z m-4477 -162 c47 -32 35 -45 -193 -189 -204 -130
-232 -143 -275 -125 -18 7 -36 24 -41 38 -30 78 68 221 176 257 106 35 294 46
333 19z m3977 -19 c93 -58 127 -185 66 -246 -37 -37 -86 -38 -159 -4 -99 46
-251 161 -292 221 -24 36 -24 36 -5 51 16 12 51 14 181 11 159 -3 162 -4 209
-33z m-3310 -6 c33 -6 76 -19 95 -29 67 -34 135 -128 115 -159 -4 -7 -62 -11
-158 -10 -199 0 -233 -7 -472 -108 -198 -83 -289 -97 -319 -50 -23 36 34 82
256 209 162 92 257 133 341 147 73 12 77 12 142 0z m2653 -44 c54 -16 131 -70
255 -178 41 -35 110 -90 154 -121 92 -64 108 -80 99 -101 -4 -11 -20 -15 -58
-15 -67 0 -161 43 -293 135 -150 105 -167 111 -315 107 -310 -8 -294 -8 -298
10 -5 25 47 69 133 112 132 65 226 80 323 51z m1391 -44 c37 -37 44 -116 36
-418 -9 -365 -2 -392 91 -325 51 37 143 139 146 160 1 9 2 87 2 172 1 141 3
160 25 208 33 73 70 102 129 102 66 0 121 -33 150 -90 22 -42 23 -53 19 -170
-6 -136 -29 -250 -112 -555 -26 -94 -82 -309 -126 -480 -142 -550 -206 -705
-315 -757 l-45 -22 -67 18 c-86 24 -108 23 -139 -5 -28 -27 -127 -183 -154
-244 -29 -65 -37 -119 -49 -305 -6 -96 -20 -236 -30 -312 -135 -927 -632
-1647 -1315 -1901 -162 -60 -207 -59 -288 7 -72 59 -106 80 -115 72 -4 -4 -12
-83 -18 -174 -14 -211 -4 -190 -213 -462 -56 -74 -108 -196 -130 -305 -27
-133 -43 -145 -136 -101 -213 101 -543 506 -657 807 -31 81 -32 90 -33 234 0
149 0 151 47 315 81 284 96 410 75 617 -8 76 -8 82 13 103 19 19 24 20 43 8
12 -8 50 -57 85 -108 70 -106 86 -120 110 -96 21 21 29 191 13 267 -22 101
-59 136 -206 191 -40 16 -64 32 -74 50 -15 26 -14 29 14 58 18 19 54 39 95 52
62 21 84 22 450 22 435 2 426 0 714 86 92 27 182 50 200 50 43 0 144 -51 184
-92 43 -46 50 -75 62 -259 13 -198 41 -299 85 -299 25 0 65 42 90 95 14 30 46
138 70 240 50 208 65 242 141 335 72 87 130 200 161 318 24 89 27 114 27 297
1 295 -20 343 -182 428 -136 72 -221 158 -407 416 -162 222 -250 302 -407 367
-160 66 -203 44 -178 -89 20 -106 24 -184 10 -218 -17 -41 -63 -78 -155 -126
-236 -122 -444 -151 -641 -89 -112 36 -196 89 -290 181 -102 101 -127 157
-127 285 -1 106 23 194 98 364 74 170 90 230 120 441 43 294 70 389 130 445
21 20 39 25 94 28 126 7 169 -34 222 -215 68 -232 164 -338 264 -290 18 9 49
30 69 47 41 37 47 75 20 138 -53 124 -32 145 88 86 187 -94 508 -132 733 -89
50 10 133 18 185 19 123 1 160 -16 211 -100 42 -70 60 -80 176 -100 94 -17
137 -34 147 -60 9 -25 -18 -111 -53 -166 -59 -93 -204 -173 -383 -212 -95 -21
-128 -45 -128 -92 0 -53 24 -90 67 -105 46 -15 161 -6 261 20 317 84 455 286
568 836 77 376 81 383 274 441 94 29 134 30 159 5z m-5912 -142 c62 -39 103
-114 103 -189 0 -21 -9 -68 -21 -105 -35 -113 -30 -178 42 -580 86 -485 91
-605 23 -605 -35 0 -107 59 -138 113 -28 48 -234 799 -267 972 -26 136 -22
230 14 308 24 53 72 100 112 110 34 9 97 -3 132 -24z m1837 -320 c112 -18 152
-20 271 -14 228 12 239 12 243 -5 1 -8 -16 -37 -38 -64 -22 -26 -40 -56 -40
-66 0 -10 11 -42 25 -72 99 -212 -108 -382 -519 -428 -117 -13 -136 -25 -136
-91 0 -28 4 -59 10 -69 14 -27 92 -40 230 -40 99 0 120 -3 120 -15 0 -8 -16
-43 -35 -78 -19 -35 -46 -96 -59 -134 -36 -105 -41 -112 -122 -149 -41 -19
-107 -49 -148 -68 -41 -19 -112 -59 -158 -89 -122 -79 -166 -103 -235 -126
-232 -78 -380 63 -523 497 -28 84 -56 186 -62 227 -10 65 -9 76 6 100 16 25
23 27 65 23 25 -3 92 -26 148 -51 180 -82 229 -83 271 -8 44 77 26 115 -78
166 -158 79 -277 201 -311 320 -12 42 6 92 41 110 24 13 31 12 62 -4 20 -9 55
-33 79 -53 84 -68 141 -83 197 -54 15 8 59 47 97 86 165 167 292 199 599 149z
m483 -850 c15 -6 38 -19 49 -30 l22 -20 -19 -60 c-23 -73 -24 -136 -4 -212 29
-112 16 -177 -34 -177 -28 0 -94 38 -119 69 -28 35 -53 95 -63 146 -19 101 24
239 85 276 36 22 45 23 83 8z m1605 -717 c19 -15 66 -63 104 -107 187 -215
268 -286 407 -355 105 -52 120 -69 92 -100 -77 -85 -375 -139 -704 -127 -188
7 -273 22 -516 93 -217 63 -283 64 -440 6 -204 -74 -401 -105 -670 -105 -260
0 -416 31 -537 105 -91 56 -80 78 87 166 74 39 185 104 247 144 236 151 368
204 469 188 49 -7 71 -17 179 -84 230 -142 512 -177 691 -85 21 10 68 46 106
79 37 34 91 71 118 83 28 12 95 45 150 74 121 63 164 68 217 25z m-2747 -428
c19 -9 40 -30 48 -47 8 -18 22 -106 31 -197 35 -344 81 -580 162 -832 78 -240
158 -365 219 -342 9 4 43 61 77 128 83 167 112 196 142 139 7 -16 43 -129 80
-253 36 -124 88 -292 116 -375 80 -238 72 -260 -94 -259 -88 0 -111 4 -177 30
-438 175 -947 922 -1009 1480 -17 159 16 294 98 402 51 67 178 140 245 142 16
0 44 -7 62 -16z m2375 -466 c134 -11 182 -24 178 -45 -11 -57 -432 -126 -778
-127 -195 -1 -195 -1 -248 27 -60 32 -132 93 -132 112 0 33 117 42 535 42 187
1 387 -4 445 -9z"/>
<path d="M24025 5510 c-1109 -90 -1873 -524 -2241 -1275 -228 -463 -279 -1056
-129 -1496 179 -527 643 -907 1300 -1065 392 -93 903 -109 1390 -43 191 26
492 83 576 108 116 36 132 67 184 354 37 201 43 282 22 311 -20 27 -88 22
-257 -18 -288 -70 -376 -80 -665 -80 -233 0 -271 2 -365 22 -292 64 -484 162
-655 337 -146 148 -234 325 -271 542 -22 130 -15 395 15 533 137 630 532 1050
1078 1145 108 19 298 19 387 0 103 -22 205 -76 270 -145 88 -92 125 -185 141
-352 8 -82 26 -107 85 -119 75 -14 276 -11 315 5 61 26 71 58 179 547 101 462
104 501 37 546 -51 34 -338 96 -601 128 -149 19 -635 28 -795 15z"/>
<path d="M13910 5454 c-8 -1 -32 -5 -52 -9 -28 -4 -42 -13 -52 -33 -15 -30
-61 -211 -70 -283 -8 -58 12 -86 95 -130 118 -63 172 -147 170 -264 -1 -98
-349 -1763 -442 -2115 -52 -198 -113 -325 -198 -413 -50 -53 -91 -77 -189
-112 -59 -21 -91 -38 -105 -56 -19 -27 -87 -255 -87 -295 0 -40 32 -66 101
-81 52 -12 197 -15 799 -18 1000 -4 1081 2 1108 71 17 45 54 243 55 296 1 57
-17 80 -90 114 -57 27 -139 111 -149 151 -15 60 179 1043 206 1043 13 0 24
-17 165 -270 350 -624 524 -880 734 -1083 135 -130 266 -208 426 -255 106 -31
175 -42 345 -52 179 -11 911 -14 966 -4 31 6 39 13 55 49 22 50 69 239 69 278
0 62 -41 87 -180 107 -199 28 -253 87 -976 1070 -344 467 -414 568 -414 598 0
24 1309 1095 1414 1157 67 39 197 82 318 105 135 26 146 37 181 186 41 177 41
169 15 198 -43 49 -79 51 -868 50 -715 0 -822 -4 -854 -27 -16 -12 -48 -125
-65 -237 -16 -101 -4 -133 74 -181 69 -44 79 -61 60 -105 -19 -46 -126 -140
-735 -648 -645 -537 -634 -529 -638 -516 -11 30 222 1049 252 1108 24 46 118
126 187 159 35 17 72 40 83 51 23 27 90 295 81 329 -9 38 -64 54 -205 63 -117
7 -1557 11 -1590 4z"/>
<path d="M18441 5429 c-27 -44 -74 -241 -75 -313 -1 -56 1 -61 29 -79 130 -82
163 -107 195 -152 71 -100 77 -62 -350 -2000 -176 -797 -240 -1107 -240 -1162
0 -58 10 -61 238 -72 207 -10 1205 -5 1292 7 50 6 57 10 72 42 25 52 67 216
74 290 l6 66 -35 29 c-20 17 -61 46 -92 65 -145 89 -149 206 -27 745 l47 210
637 5 c549 4 639 7 652 20 30 29 135 454 144 577 5 72 4 73 -24 85 -21 9 -185
14 -626 18 -379 3 -601 9 -607 15 -11 11 2 78 125 643 l79 362 195 1 c107 1
254 3 325 4 72 0 201 -3 288 -7 136 -7 166 -12 214 -34 112 -49 132 -87 143
-266 9 -140 20 -173 67 -184 26 -7 154 -9 291 -6 109 3 107 -1 180 297 81 331
153 656 159 727 6 56 5 58 -23 69 -44 18 -477 24 -1981 27 l-1353 3 -19 -32z"/>
<path d="M28670 1660 l0 -39 73 -3 72 -3 3 -252 2 -253 45 0 45 0 0 255 0 254
73 3 72 3 3 38 3 37 -195 0 -196 0 0 -40z"/>
<path d="M29200 1405 l0 -295 40 0 40 0 1 208 0 207 48 -97 c56 -116 76 -141
101 -128 10 5 41 54 69 107 l50 98 1 -197 0 -198 45 0 45 0 0 295 0 295 -35 0
c-46 0 -62 -19 -125 -155 -29 -63 -56 -115 -59 -115 -4 0 -27 41 -51 92 -25
50 -57 111 -72 135 -24 37 -32 43 -63 43 l-35 0 0 -295z"/>
</g>
</svg>
